<svg width="260" height="260" viewBox="0 0 260 260" fill="none" xmlns="http://www.w3.org/2000/svg">
<path d="M95.1202 168.656L117.904 144.603L143.821 168.656H188.249L117.619 99.0748L47.5596 168.656H95.1202Z" fill="#2D383F"/>
<path d="M160.34 56.9824L126.734 91.3436L148.948 114.251L160.34 102.797L222.71 165.22C208.47 203.304 172.017 230.507 129.013 230.507C73.762 230.507 29.0491 185.551 29.0491 130C29.3339 74.4491 74.0468 29.4934 129.297 29.4934C178.282 29.4934 219.292 65.2866 227.552 111.96L257.74 144.031C258.309 139.449 258.594 134.582 258.594 130C258.594 95.3525 245.209 62.7095 220.716 38.0837C196.224 13.4582 163.758 0 129.297 0C94.5523 0 62.3704 13.4582 37.8778 38.0837C13.3854 62.7095 0 95.0659 0 130C0 164.934 13.3854 197.29 37.8778 221.916C62.3704 246.542 94.8371 260 129.297 260C163.758 260 196.224 246.542 220.716 221.916C235.811 206.74 246.633 188.701 252.614 168.942C253.753 165.507 254.607 161.784 255.461 158.348L229.261 130.573L160.34 56.9824Z" fill="#2D383F"/>
</svg>
